# xmcd CD database file
#
# Track frame offsets:
#	150
#	19557
#	45737
#	82920
#	98740
#	106400
#	127385
#	134090
#	150635
#	178727
#
# Disc length: 2936 seconds
#
# Revision: 0
# Processed by: cddbd v1.5.2PL0 Copyright (c) Steve Scherf et al.
# Submitted via: CDex 1.70beta2
#
DISCID=820b760a
DTITLE=Wertico, Paul - The Yin and the Young
DYEAR=1993
DGENRE=Jazz
TTITLE0=Peruvian flok song
TTITLE1=Don't look back
TTITLE2=The long chart
TTITLE3=Dance of the hunters
TTITLE4=From here to there
TTITLE5=Days like these
TTITLE6=Element
TTITLE7=The max factor
TTITLE8=Triune
TTITLE9=Cowboys and Africans
EXTD=YEAR: 1993
EXTT0=
EXTT1=
EXTT2=
EXTT3=
EXTT4=
EXTT5=
EXTT6=
EXTT7=
EXTT8=
EXTT9=
PLAYORDER=
